<svg xmlns="http://www.w3.org/2000/svg" version="1.1" xmlns:xlink="http://www.w3.org/1999/xlink" xmlns:svgjs="http://svgjs.com/svgjs" width="720" height="500" preserveAspectRatio="none" viewBox="0 0 720 500"><g mask="url(&quot;#SvgjsMask1141&quot;)" fill="none"><rect width="720" height="500" x="0" y="0" fill="rgba(152, 185, 242, 1)"></rect><path d="M0,271.608C62.287,284.841,131.923,323.026,186.272,289.845C240.441,256.773,227.845,173.824,254.504,116.228C281.354,58.22,346.078,14.504,343.278,-49.356C340.457,-113.704,286.306,-163.145,240.281,-208.204C197.112,-250.467,147.603,-290.113,87.904,-299.373C31.16,-308.174,-24.65,-283.829,-75.517,-257.186C-119.445,-234.177,-145.399,-191.111,-182.214,-157.889C-225.514,-118.815,-291.178,-99.574,-310.971,-44.711C-331.431,12,-318.842,79.986,-286.356,130.774C-255.15,179.561,-193.487,194.648,-141.518,220.207C-95.551,242.814,-50.108,260.963,0,271.608" fill="#598eea"></path><path d="M720 773.377C771.538 774.672 815.772 743.569 862.404 721.585 916.35 696.153 978.656 682.145 1014.55 634.516 1053.807 582.425 1086.6399999999999 512.308 1066.9940000000001 450.11 1047.28 387.694 967.736 370.954 917.899 328.52 877.254 293.913 853.031 236.17899999999997 801.121 223.72899999999998 749.608 211.37400000000002 699.612 243.788 650.842 264.47 607.29 282.93899999999996 571.769 311.099 532.586 337.605 478.142 374.43399999999997 391.76 386.746 375.815 450.514 360.28 512.643 423.156 567.094 462.587 617.557 494.832 658.8240000000001 537.3199999999999 687.422 582.1220000000001 714.542 625.753 740.953 669.014 772.096 720 773.377" fill="#d7e4fa"></path></g><defs><mask id="SvgjsMask1141"><rect width="720" height="500" fill="#ffffff"></rect></mask></defs></svg>